<?xml version="1.0" encoding="utf-8"?>
<!-- Generator: Adobe Illustrator 19.0.0, SVG Export Plug-In . SVG Version: 6.00 Build 0)  -->
<svg version="1.1" id="Layer_1" xmlns="http://www.w3.org/2000/svg" xmlns:xlink="http://www.w3.org/1999/xlink" x="0px" y="0px"
	 viewBox="0 0 96 96" style="enable-background:new 0 0 96 96;" xml:space="preserve">
<style type="text/css">
	.st0{fill:#2C3E50;}
	.st1{fill:#D35400;}
	.st2{fill:#95A5A6;}
	.st3{fill:#BDC3C7;}
	.st4{fill:#ECF0F1;}
	.st5{fill:#34495E;}
</style>
<g id="XMLID_1_">
	<path id="XMLID_3_" class="st0" d="M31.9,53.4c4,1.7,9.7,2.7,16.1,2.7s12.1-1,16.1-2.7H31.9L31.9,53.4z"/>
	<polygon id="XMLID_4_" class="st0" points="34.5,29.1 61.5,29.1 64.2,53.4 31.8,53.4 	"/>
	<path id="XMLID_5_" class="st1" d="M37.2,58.8c-6.2,3-12.4,6-18.5,9.2c-2.4,1.4-3.3,4.3-3.1,7c0.1,1.6-0.5,3.8,1.2,4.9
		c1.6,0.8,3.5,0.3,5.2,0.5H78c2.1-0.3,2.6-2.4,2.4-4.1c0-2.7,0.2-5.4-1.8-7.3c-1.6-1.6-3.9-2.4-5.8-3.5c-4.7-2.2-9.4-4.6-14-6.8
		H37.2L37.2,58.8z"/>
	<rect id="XMLID_6_" x="39.9" y="50.7" class="st2" width="16.2" height="13.5"/>
	<path id="XMLID_7_" class="st3" d="M48,15.5c-8,0-14.7,7.3-16,16.8c-0.3,0-0.6-0.3-0.9-0.3c-1.4,0.5-1.8,3.2-0.8,6.2
		c0.5,1.6,1.4,3,2.4,3.5c2.1,8.4,8.2,14.3,15.4,14.3c7.2,0,13.3-6,15.4-14.3c0.9-0.5,1.8-1.9,2.4-3.5c0.9-3,0.6-5.7-0.8-6.2
		c-0.3,0-0.6,0.3-0.9,0.3C62.7,22.8,56,15.5,48,15.5z"/>
	<path id="XMLID_8_" class="st4" d="M37.2,58.8c0,4.4,2.8,16.3,6.8,21.6H52c4-5.4,6.8-17.2,6.8-21.6H37.2z"/>
	<path id="XMLID_9_" class="st5" d="M48,15.5c-9.7,0-19.3,9.7-18.9,18.9c-0.1,6,2.7,12.4,2.8,18.4c2.8-3.5,2.7-7.8,2.6-12.2
		c0.6-3,0-7.3,2.7-8.9c6.4-3.2,10.3-9.5,12.4-16.2H48z"/>
	<path id="XMLID_10_" class="st2" d="M37.2,58.8c0,3.8,4.8,16.2,10.8,16.2c6,0,10.8-12.4,10.8-16.2H37.2z"/>
	<path id="XMLID_11_" class="st5" d="M48,15.5c9.7,0,19.3,9.7,18.9,18.9c0.1,6-2.7,12.4-2.8,18.4c-2.8-3.5-2.7-7.8-2.6-12.2
		c-0.6-3,0-7.3-2.7-8.9c-6.4-3.2-10.3-9.5-12.4-16.2H48z"/>
</g>
</svg>
